<svg width="206" height="45" viewBox="0 0 206 45" fill="none" xmlns="http://www.w3.org/2000/svg">
<path d="M25.696 33.648L27.1102 32.2338L27.1102 32.2338L25.696 33.648ZM25.344 20.756H27.344V13.6478L23.6374 19.7131L25.344 20.756ZM22.44 25.508L24.1245 26.5861L24.1357 26.5686L24.1466 26.5509L22.44 25.508ZM16.104 25.508L14.3974 26.5509L14.4083 26.5686L14.4195 26.5861L16.104 25.508ZM13.2 20.756L14.9066 19.7131L11.2 13.6478V20.756H13.2ZM12.848 33.648L14.2622 35.0622L14.2622 35.0622L12.848 33.648ZM3.212 33.648L4.62621 32.2338L4.62621 32.2338L3.212 33.648ZM3.212 3.552L4.62622 4.96621L4.62622 4.96621L3.212 3.552ZM12.892 4.388L11.1437 5.35928L11.1614 5.39109L11.1802 5.42223L12.892 4.388ZM19.272 14.948L17.5602 15.9822L19.272 18.8156L20.9838 15.9822L19.272 14.948ZM25.652 4.388L27.3638 5.42223L27.3826 5.39109L27.4003 5.35929L25.652 4.388ZM27.544 5.2H34.496V1.2H27.544V5.2ZM34.496 5.2C34.4089 5.2 34.2934 5.18286 34.1709 5.13127C34.0495 5.08015 33.9655 5.01391 33.9178 4.96621L36.7462 2.13779C36.1484 1.54002 35.3658 1.2 34.496 1.2V5.2ZM33.9178 4.96621C33.8701 4.91852 33.8039 4.83452 33.7527 4.71311C33.7011 4.59059 33.684 4.47509 33.684 4.388H37.684C37.684 3.51821 37.344 2.73555 36.7462 2.13779L33.9178 4.96621ZM33.684 4.388V32.812H37.684V4.388H33.684ZM33.684 32.812C33.684 32.7249 33.7011 32.6094 33.7527 32.4869C33.8039 32.3655 33.8701 32.2815 33.9178 32.2338L36.7462 35.0622C37.344 34.4644 37.684 33.6818 37.684 32.812H33.684ZM33.9178 32.2338C33.9655 32.1861 34.0495 32.1198 34.1709 32.0687C34.2934 32.0171 34.4089 32 34.496 32V36C35.3658 36 36.1484 35.66 36.7462 35.0622L33.9178 32.2338ZM34.496 32H26.532V36H34.496V32ZM26.532 32C26.6191 32 26.7346 32.0171 26.8571 32.0687C26.9785 32.1198 27.0625 32.1861 27.1102 32.2338L24.2818 35.0622C24.8796 35.66 25.6622 36 26.532 36V32ZM27.1102 32.2338C27.1579 32.2815 27.2242 32.3655 27.2753 32.4869C27.3269 32.6094 27.344 32.7249 27.344 32.812H23.344C23.344 33.6818 23.684 34.4644 24.2818 35.0622L27.1102 32.2338ZM27.344 32.812V20.756H23.344V32.812H27.344ZM23.6374 19.7131L20.7334 24.4651L24.1466 26.5509L27.0506 21.7989L23.6374 19.7131ZM20.7555 24.4299C20.6909 24.5308 20.6385 24.5959 20.6024 24.6351C20.5666 24.674 20.5516 24.6824 20.5613 24.6758C20.5725 24.6682 20.6048 24.6489 20.6568 24.6324C20.7099 24.6157 20.7641 24.608 20.812 24.608V28.608C22.3694 28.608 23.4536 27.6344 24.1245 26.5861L20.7555 24.4299ZM20.812 24.608H17.732V28.608H20.812V24.608ZM17.732 24.608C17.7799 24.608 17.8341 24.6157 17.8872 24.6324C17.9392 24.6489 17.9715 24.6682 17.9827 24.6758C17.9924 24.6824 17.9774 24.674 17.9416 24.6351C17.9055 24.5959 17.8531 24.5308 17.7885 24.4299L14.4195 26.5861C15.0904 27.6344 16.1746 28.608 17.732 28.608V24.608ZM17.8106 24.4651L14.9066 19.7131L11.4934 21.7989L14.3974 26.5509L17.8106 24.4651ZM11.2 20.756V32.812H15.2V20.756H11.2ZM11.2 32.812C11.2 32.7249 11.2171 32.6094 11.2687 32.4869C11.3198 32.3655 11.3861 32.2815 11.4338 32.2338L14.2622 35.0622C14.86 34.4644 15.2 33.6818 15.2 32.812H11.2ZM11.4338 32.2338C11.4815 32.1861 11.5655 32.1198 11.6869 32.0687C11.8094 32.0171 11.9249 32 12.012 32V36C12.8818 36 13.6644 35.66 14.2622 35.0622L11.4338 32.2338ZM12.012 32H4.048V36H12.012V32ZM4.048 32C4.13509 32 4.25059 32.0171 4.37311 32.0687C4.49452 32.1198 4.57852 32.1861 4.62621 32.2338L1.79779 35.0622C2.39556 35.66 3.17821 36 4.048 36V32ZM4.62621 32.2338C4.67391 32.2815 4.74015 32.3655 4.79127 32.4869C4.84286 32.6094 4.86 32.7249 4.86 32.812H0.86C0.86 33.6818 1.20002 34.4644 1.79779 35.0622L4.62621 32.2338ZM4.86 32.812V4.388H0.86V32.812H4.86ZM4.86 4.388C4.86 4.47509 4.84286 4.59059 4.79127 4.71311C4.74015 4.83452 4.67391 4.91852 4.62622 4.96621L1.79779 2.13779C1.20002 2.73556 0.86 3.51821 0.86 4.388H4.86ZM4.62622 4.96621C4.57852 5.0139 4.49452 5.08015 4.37312 5.13127C4.25059 5.18286 4.13509 5.2 4.048 5.2V1.2C3.17821 1.2 2.39556 1.54001 1.79778 2.13779L4.62622 4.96621ZM4.048 5.2H11V1.2H4.048V5.2ZM11 5.2C11.0437 5.2 11.0589 5.2051 11.054 5.20378C11.0478 5.20209 11.0361 5.19746 11.0255 5.19078C10.9996 5.17455 11.0522 5.19461 11.1437 5.35928L14.6403 3.41671C13.892 2.06968 12.6347 1.2 11 1.2V5.2ZM11.1802 5.42223L17.5602 15.9822L20.9838 13.9138L14.6038 3.35377L11.1802 5.42223ZM20.9838 15.9822L27.3638 5.42223L23.9402 3.35377L17.5602 13.9138L20.9838 15.9822ZM27.4003 5.35929C27.4918 5.19461 27.5444 5.17455 27.5185 5.19078C27.5079 5.19746 27.4962 5.20209 27.49 5.20378C27.4851 5.2051 27.5003 5.2 27.544 5.2V1.2C25.9093 1.2 24.652 2.06968 23.9037 3.41671L27.4003 5.35929ZM49.147 12.176L51.029 11.4991L51.0244 11.4864L51.0196 11.4738L49.147 12.176ZM52.755 22.208L50.873 22.8849L52.7212 28.0239L54.629 22.9066L52.755 22.208ZM56.495 12.176L54.6488 11.4068L54.6342 11.4418L54.621 11.4774L56.495 12.176ZM66.043 11.428L64.6287 12.8422L64.6831 12.8965L64.7414 12.9465L66.043 11.428ZM66.307 12.484L68.144 13.2749L68.208 13.1262L68.2473 12.9691L66.307 12.484ZM53.899 41.304L52.062 40.5131L52.0573 40.5239L52.0528 40.5348L53.899 41.304ZM44.439 42.096L43.0248 43.5102L43.0791 43.5645L43.1374 43.6145L44.439 42.096ZM44.219 40.996L46.0078 41.8904L46.0386 41.8288L46.0651 41.7652L44.219 40.996ZM47.739 32.548L49.5851 33.3172L49.9082 32.5419L49.5808 31.7685L47.739 32.548ZM39.247 12.484L37.3496 13.1165L37.3745 13.1911L37.4051 13.2635L39.247 12.484ZM39.203 12.176L37.2302 11.8472L37.203 12.0105V12.176H39.203ZM40.303 13.12H47.739V9.12H40.303V13.12ZM47.739 13.12C47.7333 13.12 47.6884 13.1191 47.6183 13.0976C47.5454 13.0751 47.4678 13.0371 47.397 12.984C47.2512 12.8747 47.239 12.784 47.2743 12.8782L51.0196 11.4738C50.791 10.864 50.4121 10.2453 49.797 9.784C49.1657 9.31051 48.4414 9.12 47.739 9.12V13.12ZM47.265 12.8529L50.873 22.8849L54.637 21.5311L51.029 11.4991L47.265 12.8529ZM54.629 22.9066L58.369 12.8746L54.621 11.4774L50.881 21.5094L54.629 22.9066ZM58.3411 12.9452C58.3789 12.8546 58.3692 12.9284 58.2423 13.0179C58.1821 13.0604 58.1188 13.0892 58.0633 13.1055C58.0102 13.121 57.982 13.12 57.991 13.12V9.12C57.2914 9.12 56.5722 9.30071 55.9356 9.75006C55.3101 10.1916 54.9044 10.7934 54.6488 11.4068L58.3411 12.9452ZM57.991 13.12H65.339V9.12H57.991V13.12ZM65.339 13.12C65.2037 13.12 65.0546 13.092 64.9113 13.0293C64.7717 12.9682 64.679 12.8925 64.6287 12.8422L67.4572 10.0138C66.918 9.47457 66.1889 9.12 65.339 9.12V13.12ZM64.7414 12.9465C64.7019 12.9127 64.6034 12.8191 64.513 12.6512C64.4163 12.4716 64.351 12.2465 64.351 12H68.351C68.351 11.039 67.8436 10.3373 67.3445 9.90948L64.7414 12.9465ZM64.351 12C64.351 12.0278 64.3505 12.0495 64.3498 12.0658C64.3492 12.0822 64.3484 12.0913 64.3482 12.0939C64.3479 12.0967 64.3484 12.0902 64.3507 12.0758C64.3519 12.0684 64.3536 12.0583 64.3561 12.0457C64.3586 12.0331 64.3621 12.0174 64.3667 11.9989L68.2473 12.9691C68.3343 12.6209 68.351 12.2723 68.351 12H64.351ZM64.47 11.6931L52.062 40.5131L55.736 42.0949L68.144 13.2749L64.47 11.6931ZM52.0528 40.5348C52.021 40.6112 52.0361 40.5335 52.1629 40.4465C52.2214 40.4065 52.2791 40.382 52.3243 40.3693C52.3668 40.3572 52.3824 40.36 52.359 40.36V44.36C53.0557 44.36 53.7794 44.1882 54.425 43.7455C55.0651 43.3065 55.4836 42.7008 55.7451 42.0732L52.0528 40.5348ZM52.359 40.36H45.143V44.36H52.359V40.36ZM45.143 40.36C45.2379 40.36 45.3522 40.3767 45.4712 40.4213C45.5895 40.4657 45.6798 40.5254 45.7406 40.5775L43.1374 43.6145C43.6955 44.0929 44.3889 44.36 45.143 44.36V40.36ZM45.8532 40.6818C45.9469 40.7755 46.0363 40.9021 46.0979 41.0562C46.1586 41.208 46.175 41.3426 46.175 41.436H42.175C42.175 42.1947 42.4492 42.9346 43.0248 43.5102L45.8532 40.6818ZM46.175 41.436C46.175 41.3512 46.178 41.3294 46.176 41.349C46.175 41.3593 46.1702 41.4062 46.1553 41.4756C46.1476 41.5116 46.1349 41.5645 46.1145 41.6285C46.0948 41.6905 46.0616 41.7828 46.0078 41.8904L42.4301 40.1016C42.2375 40.4867 42.2048 40.8623 42.1959 40.951C42.1793 41.1173 42.175 41.2861 42.175 41.436H46.175ZM46.0651 41.7652L49.5851 33.3172L45.8928 31.7788L42.3728 40.2268L46.0651 41.7652ZM49.5808 31.7685L41.0888 11.7045L37.4051 13.2635L45.8971 33.3275L49.5808 31.7685ZM41.1443 11.8515C41.1982 12.0133 41.203 12.1326 41.203 12.176H37.203C37.203 12.454 37.237 12.7787 37.3496 13.1165L41.1443 11.8515ZM41.1758 12.5048C41.1915 12.4104 41.1819 12.6052 40.951 12.8268C40.8339 12.9392 40.6973 13.0205 40.5622 13.0688C40.4335 13.1149 40.3384 13.12 40.303 13.12V9.12C39.5947 9.12 38.8127 9.33466 38.1809 9.94122C37.5834 10.5148 37.3318 11.2376 37.2302 11.8472L41.1758 12.5048ZM86.7494 23.484L88.6468 24.1165L88.6581 24.0826L88.6682 24.0483L86.7494 23.484ZM87.2774 22.472L86.0774 20.872L86.0253 20.9111L85.9759 20.9535L87.2774 22.472ZM98.0134 22.516L96.4949 23.8176L96.595 23.9344L96.7119 24.0345L98.0134 22.516ZM96.1214 29.6L94.5956 28.3069L94.5873 28.3169L96.1214 29.6ZM72.7574 31.492L71.5603 33.0941L71.5659 33.0984L71.5716 33.1026L72.7574 31.492ZM72.8454 5.796L74.0371 7.40219L74.0371 7.40219L72.8454 5.796ZM96.1214 7.6L94.5873 8.88314L94.5956 8.89304L96.1214 7.6ZM98.0134 14.728L96.5992 13.3138L96.5992 13.3138L98.0134 14.728ZM87.3214 14.728L86.0199 16.2465L86.0693 16.2889L86.1214 16.328L87.3214 14.728ZM86.7494 13.716L84.8628 14.3798L84.8635 14.3816L86.7494 13.716ZM78.1934 14.904V22.296H82.1934V14.904H78.1934ZM78.1934 22.296C78.1934 23.7498 78.5216 25.2133 79.5309 26.318C80.5714 27.4569 82.0069 27.86 83.4494 27.86V23.86C82.7213 23.86 82.5288 23.6691 82.484 23.62C82.4079 23.5367 82.1934 23.2182 82.1934 22.296H78.1934ZM83.4494 27.86C84.6055 27.86 85.734 27.5824 86.697 26.8891C87.6603 26.1955 88.2812 25.2132 88.6468 24.1165L84.8521 22.8515C84.6897 23.3388 84.4966 23.5445 84.3598 23.6429C84.2228 23.7416 83.9654 23.86 83.4494 23.86V27.86ZM88.6682 24.0483C88.6917 23.9682 88.713 23.9064 88.7308 23.8604C88.7487 23.814 88.7608 23.7895 88.7646 23.7821C88.7687 23.7743 88.7601 23.7923 88.7344 23.8269C88.7089 23.8613 88.6591 23.9219 88.579 23.9905L85.9759 20.9535C85.3112 21.5232 85.0019 22.3374 84.8307 22.9197L88.6682 24.0483ZM88.4774 24.072C88.3237 24.1873 88.2046 24.2165 88.1952 24.2188C88.1878 24.2205 88.1982 24.2175 88.2305 24.2142C88.2626 24.211 88.3108 24.208 88.3774 24.208V20.208C87.7194 20.208 86.8269 20.3099 86.0774 20.872L88.4774 24.072ZM88.3774 24.208H97.3534V20.208H88.3774V24.208ZM97.3534 24.208C97.2191 24.208 97.048 24.1801 96.8707 24.0974C96.6946 24.0152 96.571 23.9064 96.4949 23.8176L99.532 21.2144C98.9866 20.5782 98.2175 20.208 97.3534 20.208V24.208ZM96.7119 24.0345C96.6231 23.9584 96.5142 23.8348 96.4321 23.6588C96.3493 23.4814 96.3214 23.3103 96.3214 23.176H100.321C100.321 22.312 99.9512 21.5428 99.315 20.9975L96.7119 24.0345ZM96.3214 23.176C96.3214 25.3175 95.7177 26.9829 94.5956 28.307L97.6472 30.893C99.4585 28.7558 100.321 26.1385 100.321 23.176H96.3214ZM94.5873 28.3169C92.3926 30.941 88.8462 32.44 83.4934 32.44V36.44C89.5806 36.44 94.4529 34.7124 97.6556 30.8831L94.5873 28.3169ZM83.4934 32.44C79.2833 32.44 76.1659 31.5179 73.9432 29.8814L71.5716 33.1026C74.6877 35.3968 78.7276 36.44 83.4934 36.44V32.44ZM73.9546 29.8899C71.9085 28.361 70.7534 25.9794 70.7534 22.34H66.7534C66.7534 26.914 68.2677 30.6337 71.5603 33.0941L73.9546 29.8899ZM70.7534 22.34V14.86H66.7534V22.34H70.7534ZM70.7534 14.86C70.7534 11.3434 71.9145 8.97707 74.0371 7.40219L71.6537 4.1898C68.3204 6.66292 66.7534 10.3393 66.7534 14.86H70.7534ZM74.0371 7.40219C76.3329 5.69886 79.4284 4.76 83.4934 4.76V0.759998C78.8171 0.759998 74.8139 1.84514 71.6537 4.1898L74.0371 7.40219ZM83.4934 4.76C88.8462 4.76 92.3926 6.25904 94.5873 8.88311L97.6556 6.31689C94.4529 2.48763 89.5806 0.759998 83.4934 0.759998V4.76ZM94.5956 8.89304C95.7177 10.2171 96.3214 11.8825 96.3214 14.024H100.321C100.321 11.0615 99.4585 8.44425 97.6472 6.30696L94.5956 8.89304ZM96.3214 14.024C96.3214 13.8888 96.3494 13.7396 96.4121 13.5964C96.4732 13.4568 96.5489 13.3641 96.5992 13.3138L99.4277 16.1422C99.9669 15.603 100.321 14.874 100.321 14.024H96.3214ZM96.5992 13.3138C96.6929 13.2201 96.8196 13.1307 96.9737 13.069C97.1254 13.0083 97.26 12.992 97.3534 12.992V16.992C98.1122 16.992 98.8521 16.7178 99.4277 16.1422L96.5992 13.3138ZM97.3534 12.992H88.3774V16.992H97.3534V12.992ZM88.3774 12.992C88.2613 12.992 88.2254 12.9804 88.2465 12.9857C88.2697 12.9915 88.3814 13.023 88.5214 13.128L86.1214 16.328C86.8549 16.8781 87.7158 16.992 88.3774 16.992V12.992ZM88.623 13.2095C88.6937 13.27 88.7356 13.3206 88.7538 13.3441C88.7723 13.3681 88.7752 13.3759 88.7656 13.3589C88.7563 13.3425 88.7391 13.3097 88.7158 13.2564C88.6926 13.2035 88.6655 13.1356 88.6354 13.0504L84.8635 14.3816C85.0642 14.9504 85.3969 15.7125 86.0199 16.2465L88.623 13.2095ZM88.6361 13.0522C88.2544 11.9675 87.6287 10.9975 86.675 10.3109C85.7178 9.62172 84.5995 9.34 83.4494 9.34V13.34C83.942 13.34 84.1951 13.4543 84.3378 13.5571C84.4842 13.6625 84.6871 13.8805 84.8628 14.3798L88.6361 13.0522ZM83.4494 9.34C82.0069 9.34 80.5714 9.74307 79.5309 10.882C78.5216 11.9867 78.1934 13.4502 78.1934 14.904H82.1934C82.1934 13.9818 82.4079 13.6633 82.484 13.58C82.5288 13.5309 82.7213 13.34 83.4494 13.34V9.34ZM111.481 13.848H109.481V18.2911L112.807 15.3452L111.481 13.848ZM121.293 20.008L119.878 18.5938L119.878 18.5938L121.293 20.008ZM112.889 20.932L114.138 22.4937L114.144 22.489L114.15 22.4842L112.889 20.932ZM112.141 22.384L110.15 22.1944L110.141 22.289V22.384H112.141ZM111.789 33.648L113.203 35.0622L113.203 35.0622L111.789 33.648ZM101.757 33.648L100.342 35.0622L100.342 35.0622L101.757 33.648ZM101.757 11.472L100.342 10.0578L100.342 10.0578L101.757 11.472ZM111.129 11.472L109.714 12.8862L109.714 12.8862L111.129 11.472ZM109.481 12.308V13.848H113.481V12.308H109.481ZM112.807 15.3452C114.529 13.8199 116.355 13.12 118.345 13.12V9.12C115.289 9.12 112.539 10.2388 110.154 12.3508L112.807 15.3452ZM118.345 13.12H120.457V9.12H118.345V13.12ZM120.457 13.12C120.369 13.12 120.254 13.1029 120.131 13.0513C120.01 13.0001 119.926 12.9339 119.878 12.8862L122.707 10.0578C122.109 9.46002 121.326 9.12 120.457 9.12V13.12ZM119.878 12.8862C119.831 12.8385 119.764 12.7545 119.713 12.6331C119.662 12.5106 119.645 12.3951 119.645 12.308H123.645C123.645 11.4382 123.305 10.6556 122.707 10.0578L119.878 12.8862ZM119.645 12.308V19.172H123.645V12.308H119.645ZM119.645 19.172C119.645 19.0849 119.662 18.9694 119.713 18.8469C119.764 18.7255 119.831 18.6415 119.878 18.5938L122.707 21.4222C123.305 20.8244 123.645 20.0418 123.645 19.172H119.645ZM119.878 18.5938C119.926 18.5461 120.01 18.4798 120.131 18.4287C120.254 18.3771 120.369 18.36 120.457 18.36V22.36C121.326 22.36 122.109 22.02 122.707 21.4222L119.878 18.5938ZM120.457 18.36H114.781V22.36H120.457V18.36ZM114.781 18.36C113.673 18.36 112.551 18.6296 111.627 19.3798L114.15 22.4842C114.165 22.4717 114.304 22.36 114.781 22.36V18.36ZM111.639 19.3703C110.733 20.0954 110.254 21.0979 110.15 22.1944L114.132 22.5736C114.136 22.5282 114.142 22.5001 114.146 22.486C114.15 22.4724 114.152 22.47 114.149 22.4749C114.147 22.4801 114.142 22.487 114.137 22.4931C114.132 22.4991 114.131 22.4991 114.138 22.4937L111.639 19.3703ZM110.141 22.384V32.812H114.141V22.384H110.141ZM110.141 32.812C110.141 32.7249 110.158 32.6094 110.209 32.4869C110.26 32.3655 110.327 32.2815 110.374 32.2338L113.203 35.0622C113.801 34.4644 114.141 33.6818 114.141 32.812H110.141ZM110.374 32.2338C110.422 32.1861 110.506 32.1198 110.627 32.0687C110.75 32.0171 110.865 32 110.953 32V36C111.822 36 112.605 35.66 113.203 35.0622L110.374 32.2338ZM110.953 32H102.593V36H110.953V32ZM102.593 32C102.68 32 102.795 32.0171 102.918 32.0687C103.039 32.1198 103.123 32.1861 103.171 32.2338L100.342 35.0622C100.94 35.66 101.723 36 102.593 36V32ZM103.171 32.2338C103.218 32.2815 103.285 32.3655 103.336 32.4869C103.387 32.6094 103.405 32.7249 103.405 32.812H99.4045C99.4045 33.6818 99.7445 34.4644 100.342 35.0622L103.171 32.2338ZM103.405 32.812V12.308H99.4045V32.812H103.405ZM103.405 12.308C103.405 12.3951 103.387 12.5106 103.336 12.6331C103.285 12.7545 103.218 12.8385 103.171 12.8862L100.342 10.0578C99.7445 10.6556 99.4045 11.4382 99.4045 12.308H103.405ZM103.171 12.8862C103.123 12.9339 103.039 13.0001 102.918 13.0513C102.795 13.1029 102.68 13.12 102.593 13.12V9.12C101.723 9.12 100.94 9.46002 100.342 10.0578L103.171 12.8862ZM102.593 13.12H110.293V9.12H102.593V13.12ZM110.293 13.12C110.205 13.12 110.09 13.1029 109.967 13.0513C109.846 13.0001 109.762 12.9339 109.714 12.8862L112.543 10.0578C111.945 9.46002 111.162 9.12 110.293 9.12V13.12ZM109.714 12.8862C109.667 12.8385 109.6 12.7545 109.549 12.6331C109.498 12.5106 109.481 12.3951 109.481 12.308H113.481C113.481 11.4382 113.141 10.6556 112.543 10.0578L109.714 12.8862ZM133.581 12.176L135.463 11.4991L135.458 11.4864L135.453 11.4738L133.581 12.176ZM137.189 22.208L135.307 22.8849L137.155 28.0239L139.063 22.9066L137.189 22.208ZM140.929 12.176L139.082 11.4068L139.068 11.4418L139.055 11.4774L140.929 12.176ZM150.477 11.428L149.062 12.8422L149.117 12.8965L149.175 12.9465L150.477 11.428ZM150.741 12.484L152.578 13.2749L152.642 13.1262L152.681 12.9691L150.741 12.484ZM138.333 41.304L136.496 40.5131L136.491 40.5239L136.486 40.5348L138.333 41.304ZM128.873 42.096L127.458 43.5102L127.513 43.5645L127.571 43.6145L128.873 42.096ZM128.653 40.996L130.441 41.8904L130.472 41.8288L130.499 41.7652L128.653 40.996ZM132.173 32.548L134.019 33.3172L134.342 32.5419L134.014 31.7685L132.173 32.548ZM123.681 12.484L121.783 13.1165L121.808 13.1911L121.839 13.2635L123.681 12.484ZM123.637 12.176L121.664 11.8472L121.637 12.0105V12.176H123.637ZM124.737 13.12H132.173V9.12H124.737V13.12ZM132.173 13.12C132.167 13.12 132.122 13.1191 132.052 13.0976C131.979 13.0751 131.901 13.0371 131.831 12.984C131.685 12.8747 131.673 12.784 131.708 12.8782L135.453 11.4738C135.225 10.864 134.846 10.2453 134.231 9.784C133.599 9.31051 132.875 9.12 132.173 9.12V13.12ZM131.699 12.8529L135.307 22.8849L139.071 21.5311L135.463 11.4991L131.699 12.8529ZM139.063 22.9066L142.803 12.8746L139.055 11.4774L135.315 21.5094L139.063 22.9066ZM142.775 12.9452C142.812 12.8546 142.803 12.9284 142.676 13.0179C142.616 13.0604 142.552 13.0892 142.497 13.1055C142.444 13.121 142.416 13.12 142.425 13.12V9.12C141.725 9.12 141.006 9.30071 140.369 9.75006C139.744 10.1916 139.338 10.7934 139.082 11.4068L142.775 12.9452ZM142.425 13.12H149.773V9.12H142.425V13.12ZM149.773 13.12C149.637 13.12 149.488 13.092 149.345 13.0293C149.205 12.9682 149.113 12.8925 149.062 12.8422L151.891 10.0138C151.352 9.47457 150.623 9.12 149.773 9.12V13.12ZM149.175 12.9465C149.136 12.9127 149.037 12.8191 148.947 12.6512C148.85 12.4716 148.785 12.2465 148.785 12H152.785C152.785 11.039 152.277 10.3373 151.778 9.90948L149.175 12.9465ZM148.785 12C148.785 12.0278 148.784 12.0495 148.783 12.0658C148.783 12.0822 148.782 12.0913 148.782 12.0939C148.782 12.0967 148.782 12.0902 148.784 12.0758C148.785 12.0684 148.787 12.0583 148.79 12.0457C148.792 12.0331 148.796 12.0174 148.8 11.9989L152.681 12.9691C152.768 12.6209 152.785 12.2723 152.785 12H148.785ZM148.904 11.6931L136.496 40.5131L140.17 42.0949L152.578 13.2749L148.904 11.6931ZM136.486 40.5348C136.455 40.6112 136.47 40.5335 136.597 40.4465C136.655 40.4065 136.713 40.382 136.758 40.3693C136.8 40.3572 136.816 40.36 136.793 40.36V44.36C137.489 44.36 138.213 44.1882 138.859 43.7455C139.499 43.3065 139.917 42.7008 140.179 42.0732L136.486 40.5348ZM136.793 40.36H129.577V44.36H136.793V40.36ZM129.577 40.36C129.671 40.36 129.786 40.3767 129.905 40.4213C130.023 40.4657 130.113 40.5254 130.174 40.5775L127.571 43.6145C128.129 44.0929 128.823 44.36 129.577 44.36V40.36ZM130.287 40.6818C130.38 40.7755 130.47 40.9021 130.532 41.0562C130.592 41.208 130.609 41.3426 130.609 41.436H126.609C126.609 42.1947 126.883 42.9346 127.458 43.5102L130.287 40.6818ZM130.609 41.436C130.609 41.3512 130.612 41.3294 130.61 41.349C130.609 41.3593 130.604 41.4062 130.589 41.4756C130.581 41.5116 130.568 41.5645 130.548 41.6285C130.528 41.6905 130.495 41.7828 130.441 41.8904L126.864 40.1016C126.671 40.4867 126.638 40.8623 126.629 40.951C126.613 41.1173 126.609 41.2861 126.609 41.436H130.609ZM130.499 41.7652L134.019 33.3172L130.326 31.7788L126.806 40.2268L130.499 41.7652ZM134.014 31.7685L125.522 11.7045L121.839 13.2635L130.331 33.3275L134.014 31.7685ZM125.578 11.8515C125.632 12.0133 125.637 12.1326 125.637 12.176H121.637C121.637 12.454 121.671 12.7787 121.783 13.1165L125.578 11.8515ZM125.609 12.5048C125.625 12.4104 125.615 12.6052 125.385 12.8268C125.268 12.9392 125.131 13.0205 124.996 13.0688C124.867 13.1149 124.772 13.12 124.737 13.12V9.12C124.028 9.12 123.246 9.33466 122.614 9.94122C122.017 10.5148 121.765 11.2376 121.664 11.8472L125.609 12.5048ZM176.463 31.844L175.061 30.418L175.061 30.418L176.463 31.844ZM163.923 32.372L165.264 30.8883L161.923 27.8684V32.372H163.923ZM163.571 42.008L164.985 43.4222L164.985 43.4222L163.571 42.008ZM153.759 42.008L155.173 40.5938L155.173 40.5938L153.759 42.008ZM153.759 11.472L155.173 12.8862L155.173 12.8862L153.759 11.472ZM162.911 11.472L161.497 12.8862L161.497 12.8862L162.911 11.472ZM163.263 13.628H161.263V19.4669L164.843 14.8542L163.263 13.628ZM176.507 13.188L175.117 14.6264L175.124 14.6325L175.13 14.6386L176.507 13.188ZM163.923 24.364H161.923V24.4239L161.927 24.4838L163.923 24.364ZM177.103 20.844V24.32H181.103V20.844H177.103ZM177.103 24.32C177.103 27.253 176.325 29.1752 175.061 30.418L177.865 33.27C180.121 31.0515 181.103 27.9576 181.103 24.32H177.103ZM175.061 30.418C173.689 31.7671 172.042 32.44 169.995 32.44V36.44C173.052 36.44 175.717 35.3822 177.865 33.27L175.061 30.418ZM169.995 32.44C167.85 32.44 166.343 31.8634 165.264 30.8883L162.582 33.8557C164.554 35.638 167.095 36.44 169.995 36.44V32.44ZM161.923 32.372V41.172H165.923V32.372H161.923ZM161.923 41.172C161.923 41.0849 161.94 40.9694 161.992 40.8469C162.043 40.7255 162.109 40.6415 162.157 40.5938L164.985 43.4222C165.583 42.8244 165.923 42.0418 165.923 41.172H161.923ZM162.157 40.5938C162.205 40.5461 162.289 40.4798 162.41 40.4287C162.532 40.3771 162.648 40.36 162.735 40.36V44.36C163.605 44.36 164.387 44.02 164.985 43.4222L162.157 40.5938ZM162.735 40.36H154.595V44.36H162.735V40.36ZM154.595 40.36C154.682 40.36 154.798 40.3771 154.92 40.4287C155.042 40.4798 155.126 40.5461 155.173 40.5938L152.345 43.4222C152.943 44.02 153.725 44.36 154.595 44.36V40.36ZM155.173 40.5938C155.221 40.6415 155.287 40.7255 155.338 40.8469C155.39 40.9694 155.407 41.0849 155.407 41.172H151.407C151.407 42.0418 151.747 42.8244 152.345 43.4222L155.173 40.5938ZM155.407 41.172V12.308H151.407V41.172H155.407ZM155.407 12.308C155.407 12.3951 155.39 12.5106 155.338 12.6331C155.287 12.7545 155.221 12.8385 155.173 12.8862L152.345 10.0578C151.747 10.6556 151.407 11.4382 151.407 12.308H155.407ZM155.173 12.8862C155.126 12.9339 155.042 13.0001 154.92 13.0513C154.798 13.1029 154.682 13.12 154.595 13.12V9.12C153.725 9.12 152.943 9.46002 152.345 10.0578L155.173 12.8862ZM154.595 13.12H162.075V9.12H154.595V13.12ZM162.075 13.12C161.988 13.12 161.872 13.1029 161.75 13.0513C161.629 13.0001 161.545 12.9339 161.497 12.8862L164.325 10.0578C163.727 9.46002 162.945 9.12 162.075 9.12V13.12ZM161.497 12.8862C161.449 12.8385 161.383 12.7545 161.332 12.6331C161.28 12.5106 161.263 12.3951 161.263 12.308H165.263C165.263 11.4382 164.923 10.6556 164.325 10.0578L161.497 12.8862ZM161.263 12.308V13.628H165.263V12.308H161.263ZM164.843 14.8542C165.94 13.4403 167.478 12.68 169.731 12.68V8.68C166.411 8.68 163.636 9.88506 161.683 12.4018L164.843 14.8542ZM169.731 12.68C172.087 12.68 173.819 13.3716 175.117 14.6264L177.897 11.7496C175.734 9.66041 172.948 8.68 169.731 8.68V12.68ZM175.13 14.6386C176.312 15.7608 177.103 17.6817 177.103 20.844H181.103C181.103 17.0837 180.163 13.9006 177.884 11.7374L175.13 14.6386ZM161.923 21.108V24.364H165.923V21.108H161.923ZM161.927 24.4838C161.988 25.5033 162.292 26.5954 163.125 27.4282C163.977 28.2809 165.084 28.564 166.123 28.564V24.564C165.952 24.564 165.876 24.5408 165.866 24.5372C165.865 24.5367 165.907 24.5532 165.953 24.5998C165.998 24.6442 165.999 24.6691 165.984 24.627C165.965 24.578 165.932 24.4601 165.919 24.2442L161.927 24.4838ZM166.123 28.564C167.248 28.564 168.433 28.2238 169.288 27.2319C170.094 26.2968 170.323 25.1042 170.323 24.012H166.323C166.323 24.3002 166.291 24.4789 166.263 24.5761C166.237 24.6675 166.222 24.6625 166.258 24.6201C166.3 24.5714 166.349 24.5451 166.364 24.5391C166.368 24.5377 166.301 24.564 166.123 24.564V28.564ZM170.323 24.012V21.108H166.323V24.012H170.323ZM170.323 21.108C170.323 20.0158 170.094 18.8232 169.288 17.8881C168.433 16.8962 167.248 16.556 166.123 16.556V20.556C166.301 20.556 166.368 20.5823 166.364 20.5809C166.349 20.5749 166.3 20.5486 166.258 20.4999C166.222 20.4575 166.237 20.4525 166.263 20.5439C166.291 20.6411 166.323 20.8198 166.323 21.108H170.323ZM166.123 16.556C164.998 16.556 163.813 16.8962 162.958 17.8881C162.152 18.8232 161.923 20.0158 161.923 21.108H165.923C165.923 20.8198 165.955 20.6411 165.983 20.5439C166.009 20.4525 166.024 20.4575 165.988 20.4999C165.946 20.5486 165.897 20.5749 165.882 20.5809C165.878 20.5823 165.945 20.556 166.123 20.556V16.556ZM196.041 18.82V16.82H194.041V18.82H196.041ZM202.773 26.212L201.358 27.6262L201.358 27.6262L202.773 26.212ZM202.773 33.648L201.358 32.2338L201.358 32.2338L202.773 33.648ZM185.965 18.82H187.965V16.82H185.965V18.82ZM181.653 18.468L180.238 19.8822L180.238 19.8822L181.653 18.468ZM181.653 11.472L183.067 12.8862L183.067 12.8862L181.653 11.472ZM185.965 11.12V13.12H187.965V11.12H185.965ZM195.689 3.112L194.274 4.52621L194.274 4.52621L195.689 3.112ZM196.041 11.12H194.041V13.12H196.041V11.12ZM202.421 11.472L203.835 10.0578L203.835 10.0578L202.421 11.472ZM202.421 18.468L203.835 19.8822L203.835 19.8822L202.421 18.468ZM194.041 18.82V23.66H198.041V18.82H194.041ZM194.041 23.66C194.041 24.634 194.244 25.7377 194.997 26.6141C195.801 27.5482 196.908 27.86 197.933 27.86V23.86C197.807 23.86 197.785 23.8412 197.828 23.8577C197.85 23.8664 197.884 23.8828 197.924 23.9104C197.964 23.9382 198 23.9712 198.03 24.0059C198.092 24.0777 198.095 24.1192 198.081 24.0714C198.066 24.0177 198.041 23.8898 198.041 23.66H194.041ZM197.933 27.86H201.937V23.86H197.933V27.86ZM201.937 27.86C201.85 27.86 201.734 27.8429 201.612 27.7913C201.49 27.7402 201.406 27.6739 201.358 27.6262L204.187 24.7978C203.589 24.2 202.806 23.86 201.937 23.86V27.86ZM201.358 27.6262C201.311 27.5785 201.244 27.4945 201.193 27.3731C201.142 27.2506 201.125 27.1351 201.125 27.048H205.125C205.125 26.1782 204.785 25.3956 204.187 24.7978L201.358 27.6262ZM201.125 27.048V32.812H205.125V27.048H201.125ZM201.125 32.812C201.125 32.7249 201.142 32.6094 201.193 32.4869C201.244 32.3655 201.311 32.2815 201.358 32.2338L204.187 35.0622C204.785 34.4644 205.125 33.6818 205.125 32.812H201.125ZM201.358 32.2338C201.406 32.1861 201.49 32.1198 201.612 32.0687C201.734 32.0171 201.85 32 201.937 32V36C202.806 36 203.589 35.66 204.187 35.0622L201.358 32.2338ZM201.937 32H196.965V36H201.937V32ZM196.965 32C193.539 32 191.342 31.257 190.019 30.1186C188.753 29.0299 187.965 27.2997 187.965 24.54H183.965C183.965 28.087 185.01 31.0867 187.411 33.1514C189.754 35.1664 193.057 36 196.965 36V32ZM187.965 24.54V18.82H183.965V24.54H187.965ZM185.965 16.82H182.489V20.82H185.965V16.82ZM182.489 16.82C182.576 16.82 182.691 16.8371 182.814 16.8887C182.935 16.9398 183.019 17.0061 183.067 17.0538L180.238 19.8822C180.836 20.48 181.619 20.82 182.489 20.82V16.82ZM183.067 17.0538C183.115 17.1015 183.181 17.1855 183.232 17.3069C183.283 17.4294 183.301 17.5449 183.301 17.632H179.301C179.301 18.5018 179.641 19.2844 180.238 19.8822L183.067 17.0538ZM183.301 17.632V12.308H179.301V17.632H183.301ZM183.301 12.308C183.301 12.3951 183.283 12.5106 183.232 12.6331C183.181 12.7545 183.115 12.8385 183.067 12.8862L180.238 10.0578C179.641 10.6556 179.301 11.4382 179.301 12.308H183.301ZM183.067 12.8862C183.019 12.9339 182.935 13.0001 182.814 13.0513C182.691 13.1029 182.576 13.12 182.489 13.12V9.12C181.619 9.12 180.836 9.46002 180.238 10.0578L183.067 12.8862ZM182.489 13.12H185.965V9.12H182.489V13.12ZM187.965 11.12V3.948H183.965V11.12H187.965ZM187.965 3.948C187.965 4.03509 187.947 4.15059 187.896 4.27311C187.845 4.39452 187.779 4.47852 187.731 4.52621L184.902 1.69779C184.305 2.29556 183.965 3.07821 183.965 3.948H187.965ZM187.731 4.52621C187.683 4.57391 187.599 4.64015 187.478 4.69127C187.355 4.74286 187.24 4.76 187.153 4.76V0.759998C186.283 0.759998 185.5 1.10002 184.902 1.69779L187.731 4.52621ZM187.153 4.76H194.853V0.759998H187.153V4.76ZM194.853 4.76C194.766 4.76 194.65 4.74286 194.528 4.69127C194.406 4.64015 194.322 4.5739 194.274 4.52621L197.103 1.69779C196.505 1.10002 195.722 0.759998 194.853 0.759998V4.76ZM194.274 4.52621C194.227 4.47852 194.16 4.39452 194.109 4.27311C194.058 4.15059 194.041 4.03509 194.041 3.948H198.041C198.041 3.07821 197.701 2.29555 197.103 1.69779L194.274 4.52621ZM194.041 3.948V11.12H198.041V3.948H194.041ZM196.041 13.12H201.585V9.12H196.041V13.12ZM201.585 13.12C201.498 13.12 201.382 13.1029 201.26 13.0513C201.138 13.0001 201.054 12.9339 201.006 12.8862L203.835 10.0578C203.237 9.46001 202.454 9.12 201.585 9.12V13.12ZM201.006 12.8862C200.959 12.8385 200.892 12.7545 200.841 12.6331C200.79 12.5106 200.773 12.3951 200.773 12.308H204.773C204.773 11.4382 204.433 10.6556 203.835 10.0578L201.006 12.8862ZM200.773 12.308V17.632H204.773V12.308H200.773ZM200.773 17.632C200.773 17.5449 200.79 17.4294 200.841 17.3069C200.892 17.1855 200.959 17.1015 201.006 17.0538L203.835 19.8822C204.433 19.2844 204.773 18.5018 204.773 17.632H200.773ZM201.006 17.0538C201.054 17.0061 201.138 16.9398 201.26 16.8887C201.382 16.8371 201.498 16.82 201.585 16.82V20.82C202.454 20.82 203.237 20.48 203.835 19.8822L201.006 17.0538ZM201.585 16.82H196.041V20.82H201.585V16.82Z" fill="#C490E4"/>
</svg>
